<svg width="20" height="18" viewBox="0 0 20 18" fill="none" xmlns="http://www.w3.org/2000/svg">
<path d="M12.462 15.2314H6.92334C6.02192 15.2314 5.26036 14.6505 4.97373 13.8467H14.4109C14.1243 14.6505 13.3634 15.2314 12.462 15.2314ZM14.539 12.462H4.84634V7.61568C4.84634 6.47056 5.77822 5.53867 6.92334 5.53867H12.462C13.6071 5.53867 14.539 6.47056 14.539 7.61568V12.462ZM9.00035 9.00035C9.00035 8.61818 8.69018 8.30801 8.30801 8.30801C7.92584 8.30801 7.61568 8.61818 7.61568 9.00035V9.69268C7.61568 10.0748 7.92584 10.385 8.30801 10.385C8.69018 10.385 9.00035 10.0748 9.00035 9.69268V9.00035ZM11.7697 9.00035C11.7697 8.61818 11.4595 8.30801 11.0773 8.30801C10.6952 8.30801 10.385 8.61818 10.385 9.00035V9.69268C10.385 10.0748 10.6952 10.385 11.0773 10.385C11.4595 10.385 11.7697 10.0748 11.7697 9.69268V9.00035ZM18.0007 7.61568H17.9654C17.6116 3.35851 14.0398 0 9.69268 0C5.34551 0 1.77376 3.35851 1.41998 7.61568H1.38467C0.621024 7.61568 0 8.2367 0 9.00035V11.7697C0 12.5333 0.621024 13.1544 1.38467 13.1544H2.76934C3.53298 13.1544 4.15401 12.5333 4.15401 11.7697V9.00035C4.15401 8.24847 3.55168 7.63852 2.80395 7.61914C3.15081 4.12354 6.10708 1.38467 9.69268 1.38467C13.2783 1.38467 16.2345 4.12354 16.5814 7.61914C15.8344 7.63783 15.2314 8.24847 15.2314 9.00035V11.7697C15.2314 12.5126 15.8205 13.1163 16.5558 13.1481C16.3606 14.3424 15.6509 15.4176 14.5986 16.049L13.4894 16.7143C13.1613 16.911 13.0553 17.3361 13.252 17.6642C13.3821 17.8802 13.6113 18 13.846 18C13.9672 18 14.0904 17.9682 14.2019 17.901L15.311 17.2357C16.7773 16.3557 17.7494 14.8312 17.9557 13.1537H18C18.7636 13.1537 19.3847 12.5326 19.3847 11.769V8.99965C19.3847 8.23601 18.7636 7.61498 18 7.61498L18.0007 7.61568Z" fill="white"/>
</svg>
